<?xml version="1.0" standalone="no"?>
<!DOCTYPE svg PUBLIC "-//W3C//DTD SVG 20010904//EN"
 "http://www.w3.org/TR/2001/REC-SVG-20010904/DTD/svg10.dtd">
<svg version="1.0" xmlns="http://www.w3.org/2000/svg"
 width="1000.000000pt" height="1000.000000pt" viewBox="0 0 1000.000000 1000.000000"
 preserveAspectRatio="xMidYMid meet">
<metadata>
Created by potrace 1.14, written by Peter Selinger 2001-2017
</metadata>
<g transform="translate(0.000000,1000.000000) scale(0.100000,-0.100000)"
fill="#000000" stroke="none">
<path d="M7479 7776 c-2 -2 -41 -7 -86 -10 -439 -35 -915 -220 -1280 -496
-423 -320 -748 -795 -919 -1345 -14 -44 -27 -87 -29 -95 -42 -174 -61 -264
-70 -330 -34 -241 -39 -318 -40 -555 0 -180 9 -379 20 -437 3 -12 7 -42 10
-67 5 -44 29 -184 39 -226 30 -127 43 -176 73 -270 19 -60 43 -128 53 -150 10
-22 30 -69 45 -105 81 -193 234 -448 371 -619 291 -362 730 -655 1184 -789 58
-17 116 -33 130 -36 14 -2 48 -10 75 -16 28 -7 65 -14 83 -16 18 -1 41 -5 50
-8 78 -24 545 -29 707 -8 356 46 622 130 890 280 55 30 102 58 105 61 3 4 19
15 35 25 58 36 171 131 256 216 167 166 308 364 437 612 56 110 125 259 120
263 -6 6 -263 124 -276 127 -8 2 -23 -21 -38 -57 -127 -308 -340 -594 -594
-796 -168 -134 -485 -268 -700 -295 -19 -2 -46 -7 -60 -10 -48 -10 -365 -13
-430 -3 -115 16 -129 19 -177 30 -27 6 -55 12 -63 14 -151 35 -357 137 -534
263 -199 143 -433 413 -543 627 -11 22 -30 57 -42 78 -108 192 -235 594 -266
846 -4 30 -9 63 -11 75 -12 66 -19 222 -19 461 0 285 6 393 31 575 3 25 8 57
9 72 2 15 9 53 15 85 5 32 13 72 16 88 10 56 45 200 60 246 8 25 16 54 18 65
8 38 63 191 101 279 174 407 436 703 777 878 133 68 313 128 433 143 28 4 54
9 58 11 23 14 318 11 412 -3 474 -72 853 -431 1093 -1034 65 -163 131 -364
172 -520 18 -69 34 -131 36 -137 3 -10 44 -13 162 -13 l159 0 -3 123 c-1 67
-5 273 -8 457 -8 487 -23 1260 -26 1318 0 10 -35 12 -157 10 l-156 -3 -74
-120 c-40 -66 -77 -121 -82 -123 -5 -2 -31 10 -59 27 -208 122 -563 256 -787
295 -16 3 -41 8 -54 11 -13 2 -49 7 -80 11 -31 3 -65 8 -76 11 -25 6 -490 14
-496 9z"/>
<path d="M332 7525 c-1 -120 1 -135 16 -136 87 -6 347 -60 447 -94 201 -67
279 -143 308 -301 18 -96 16 -4024 -2 -4097 -37 -153 -135 -241 -301 -271 -83
-15 -110 -18 -295 -32 -49 -4 -97 -8 -105 -10 -8 -1 -27 -3 -42 -3 l-27 -1 1
-135 0 -135 1189 0 c654 0 1189 3 1190 8 1 4 2 64 3 135 1 107 -1 127 -14 128
-136 5 -473 75 -550 114 -104 53 -174 145 -199 262 -7 36 -11 352 -11 998 l0
946 392 -2 c403 -1 492 -7 623 -40 143 -36 263 -111 342 -215 56 -73 115 -211
158 -370 31 -113 29 -103 40 -169 12 -69 12 -67 13 -97 l2 -28 148 0 149 0 0
1050 0 1050 -149 0 c-147 0 -148 0 -149 -22 0 -13 -2 -31 -4 -40 -2 -9 -6 -34
-9 -55 -7 -54 -52 -220 -71 -268 -38 -94 -98 -203 -133 -240 -78 -85 -177
-150 -282 -187 -131 -46 -175 -50 -632 -55 l-438 -5 0 1072 0 1072 678 -5
c372 -3 706 -7 742 -11 199 -18 243 -30 344 -88 91 -54 231 -194 339 -340 48
-65 87 -120 87 -122 0 -2 16 -28 35 -58 56 -84 145 -272 171 -358 l14 -49 141
-3 c79 -2 143 1 147 6 4 7 7 1233 3 1319 -1 16 -111 17 -2155 17 l-2153 0 -1
-135z"/>
</g>
</svg>
